Coordinates
version=1
nRows=19
nColumns=36
inDegrees=yes

Units are S.I. units (second, meters, Newtons, ...)
If the header above contains a line with 'inDegrees', this indicates whether rotational values are in degrees (yes) or radians (no).

endheader
time	pelvis_tilt	pelvis_list	pelvis_rotation	pelvis_tx	pelvis_ty	pelvis_tz	hip_flexion_r	hip_adduction_r	hip_rotation_r	knee_angle_r	knee_angle_r_beta	ankle_angle_r	subtalar_angle_r	mtp_angle_r	hip_flexion_l	hip_adduction_l	hip_rotation_l	knee_angle_l	knee_angle_l_beta	ankle_angle_l	subtalar_angle_l	mtp_angle_l	lumbar_extension	lumbar_bending	lumbar_rotation	arm_flex_r	arm_add_r	arm_rot_r	elbow_flex_r	pro_sup_r	arm_flex_l	arm_add_l	arm_rot_l	elbow_flex_l	pro_sup_l
      2.47500000	    -16.41696351	     -2.94092422	     -1.39506795	      0.24068005	      0.77011625	     -0.06833793	     57.90676854	      1.29987919	      4.63382811	     70.59997999	      1.23220210	     25.24801150	     -5.98131884	     -7.49999987	     57.49637415	     -4.36327643	     10.46512151	     71.89525569	      1.25480893	     19.10576619	    -24.69215183	     -7.49999987	    -30.02185986	      1.02105427	     -3.06210974	     12.38050699	    -13.51775364	     10.06902910	     15.93554332	     76.33946362	     17.47934196	    -13.57487335	     20.46325225	     17.97060675	     69.04044303
      2.47916670	    -16.14387281	     -2.98687074	     -1.36551344	      0.24457113	      0.77274108	     -0.06529611	     56.88166492	      1.73332807	      4.53432393	     70.01861259	      1.22205533	     25.24635893	     -6.62686607	     -7.49999987	     56.53003868	     -5.21562153	     10.07422401	     71.27393400	      1.24396482	     19.59300227	    -23.37864282	     -7.49999987	    -29.00688930	      0.19056986	     -3.40166761	      9.03302068	    -13.18458180	     -0.48272877	     18.90185788	     72.58052199	     14.61413239	    -14.09195417	     20.59298062	     15.52452294	     67.08859098
      2.48333330	    -16.39207205	     -2.88071900	     -1.41629606	      0.24620083	      0.77834046	     -0.06653353	     56.46959377	      1.88934330	      4.63068987	     69.18781228	      1.20755513	     24.83120444	     -7.00026000	     -7.49999987	     55.99174003	     -5.64157934	      9.48604756	     70.34798128	      1.22780390	     19.74188425	    -22.46664306	     -7.49999987	    -27.16073232	     -0.88352643	     -2.84425455	      5.11993084	    -13.09171390	    -33.32471902	     35.69124899	     81.11895334	     12.22464598	    -14.23727328	     19.10349513	     12.67891156	     68.80977018
      2.48750000	    -16.67694695	     -2.72700894	     -1.48445888	      0.24590525	      0.78854916	     -0.06953206	     55.82340728	      1.78329456	      4.93192048	     67.59011255	      1.17967001	     24.00259120	     -7.44844355	     -7.49999987	     55.45725802	     -5.68915022	      8.97192174	     68.95703695	      1.20352734	     19.05583893	    -22.18514826	     -7.49999987	    -25.46176392	     -0.98091894	     -2.53168097	      6.54298914	    -15.33188131	    -52.71725576	     62.83671717	     72.62216779	      9.35636276	    -13.79587383	     12.88765651	     11.90630754	     65.45092373
      2.49166670	    -16.48811152	     -2.55656274	     -1.75211535	      0.24861682	      0.79387258	     -0.07417097	     54.70599804	      1.52897334	      5.27855301	     65.97183748	      1.15142578	     23.20018771	     -7.13376932	     -7.49999987	     54.29315507	     -5.55394395	      8.31478991	     67.59246380	      1.17971104	     18.73349019	    -22.13917454	     -7.49999987	    -24.41616775	     -0.49910034	     -1.39832154	     13.40056764	    -24.71376639	    -56.57914298	     79.89985434	     54.63447059	      7.66799238	    -13.85395152	     13.71508704	     10.17253656	     66.70522581
      2.49583330	    -16.11256544	     -2.31077089	     -1.84866552	      0.25034185	      0.79940627	     -0.07625615	     53.55037390	      1.05581493	      5.50695134	     64.54488766	      1.12652081	     22.35703109	     -7.01279687	     -7.49999987	     53.08164089	     -5.16833216	      7.81246566	     66.29276588	      1.15702703	     17.84386935	    -22.67514800	     -7.49999987	    -24.09283871	     -0.02479073	     -0.34932622	     20.72984133	    -34.10425978	    -54.48222173	     80.65625427	     54.54945145	      7.08495152	    -13.79378419	     13.21407376	      7.82837913	     65.78705487
      2.50000000	    -15.74331004	     -2.18329628	     -2.05367293	      0.25169427	      0.80407138	     -0.07720522	     52.44710703	      0.71339622	      5.51692469	     63.21165960	      1.10325159	     21.83309853	     -6.70878048	     -7.49999987	     51.98205599	     -5.00370265	      7.38554802	     65.27146500	      1.13920197	     17.50801458	    -22.81820308	     -7.49999987	    -23.63407332	      0.34443322	     -0.58463044	     24.87984992	    -37.35155107	    -51.37818638	     79.04558617	     51.76490677	      5.62949215	    -14.57652215	     11.16725424	      6.45669878	     63.28398177
      2.50416670	    -15.69499095	     -2.10441074	     -2.18479834	      0.25479086	      0.80740204	     -0.07703861	     51.65743799	      0.37629962	      5.35531570	     62.02525094	      1.08254485	     21.39758920	     -6.09996836	     -7.49999987	     51.08712570	     -4.83480738	      7.21065799	     64.02131132	      1.11738267	     17.31561918	    -22.61857672	     -7.49999987	    -22.50963834	      0.57403068	     -0.07485683	     22.60720729	    -38.11968286	    -53.04940981	     80.06606583	     50.64314901	      4.65944656	    -15.97067024	      5.86278066	      6.67470837	     61.05479921
      2.50833330	    -15.88060236	     -2.09929784	     -2.33526904	      0.25954624	      0.81047316	     -0.07552899	     51.10348308	      0.24049384	      5.07434308	     61.02126672	      1.06502202	     21.18072836	     -5.52467763	     -7.49999987	     50.53434268	     -4.97616164	      7.03501462	     63.11137483	      1.10150129	     17.06445988	    -22.56975032	     -7.49999987	    -21.03174560	      0.79821812	     -0.30269824	     19.27713617	    -37.34908285	    -54.17705984	     81.97473741	     49.79527568	      2.32307783	    -18.16295282	     -3.03867453	      8.22979728	     58.78273192
      2.51250000	    -15.77606204	     -2.23209995	     -2.25336114	      0.26372308	      0.81687119	     -0.07220049	     50.04453229	      0.33791676	      4.74724238	     59.82385521	      1.04412324	     20.94938287	     -5.08533284	     -7.49999987	     49.63956898	     -5.33758426	      6.95387903	     61.97693441	      1.08170157	     16.80196489	    -22.15436962	     -7.49999987	    -20.20568732	      0.89832253	     -2.96608177	     19.01583454	    -35.63663813	    -51.90403407	     81.32001610	     48.96688408	     -3.18582304	    -19.12223101	    -37.92734723	     17.59650764	     82.21809693
      2.51666670	    -15.58006639	     -2.32833712	     -2.23134696	      0.26591054	      0.82633486	     -0.07421034	     48.76753793	      0.27735627	      4.45027734	     58.21780582	      1.01609239	     20.25317909	     -4.65684125	     -7.49999987	     48.42344851	     -5.58435426	      6.74490276	     60.46332315	      1.05528407	     15.91739735	    -22.02922371	     -7.49999987	    -19.50942109	      1.10429950	     -3.78899626	     17.21274506	    -35.52379770	    -52.19069872	     81.00617644	     48.33624059	     -4.87316885	    -20.32885631	    -49.61371466	     21.20108425	     86.65811352
      2.52083330	    -15.30392719	     -2.33529502	     -2.30439304	      0.27060818	      0.83197818	     -0.07336450	     47.27019454	      0.19227186	      4.14711180	     56.42796034	      0.98485370	     19.49246673	     -3.97709602	     -7.49999987	     46.96604790	     -5.81699200	      6.47832888	     58.72613724	      1.02496445	     15.26247790	    -21.65040370	     -7.49999987	    -18.55253478	      1.04179154	     -4.73884538	     16.19189200	    -35.66048311	    -51.70465236	     81.96073466	     48.31112561	     -6.71396208	    -21.08387703	    -60.67722748	     25.92191455	     89.84445659
      2.52500000	    -15.11859797	     -2.30849267	     -2.50117544	      0.27473852	      0.83899680	     -0.07507747	     45.93704083	      0.02725690	      3.87015294	     54.76052589	      0.95575148	     18.54016630	     -3.38438222	     -7.49999987	     45.58234942	     -5.96679699	      6.17308416	     57.07302948	      0.99611228	     14.57235854	    -21.22841369	     -7.49999987	    -17.62730765	      0.92082408	     -5.24852800	     15.61057501	    -36.48130947	    -50.48966621	     80.89199481	     49.31808332	     -8.40991403	    -20.39319762	    -70.53246108	     32.42165648	     88.27104474
      2.52916670	    -14.67579135	     -2.21359864	     -2.64811659	      0.27750177	      0.84777509	     -0.07332530	     44.33975894	     -0.07916938	      3.81538194	     53.07101476	      0.92626394	     17.65432721	     -2.83900823	     -7.49999987	     43.89776444	     -6.15445711	      5.74714874	     55.29011367	      0.96499453	     13.72495993	    -20.65935241	     -7.49999987	    -16.93116984	      0.77245441	     -4.64828347	     13.76740536	    -38.09164014	    -49.52165493	     79.60022300	     50.00088884	     -9.92861392	    -19.47927026	    -73.55724806	     40.48015751	     87.65727558
      2.53333330	    -14.48762197	     -2.15691702	     -2.63955121	      0.28036588	      0.85444021	     -0.07487845	     43.16961228	     -0.34609381	      3.41913955	     51.58940844	      0.90040504	     16.62967146	     -2.43543607	     -7.49999987	     42.72976019	     -6.21854961	      5.45135093	     53.76023216	      0.93829306	     12.97616419	    -19.78244685	     -7.49999987	    -15.95318002	      0.63071354	     -5.27038329	     14.05355124	    -38.92426017	    -48.74679065	     77.83911750	     52.26919823	    -11.11312895	    -17.88045510	    -80.38920123	     48.05869374	     86.40856501
      2.53750000	    -14.28712497	     -2.04055133	     -2.67940316	      0.28156216	      0.85976816	     -0.07450935	     42.08555425	     -0.55022344	      3.33717468	     50.05606180	      0.87364309	     15.65710653	     -1.71328852	     -7.49999987	     41.57692010	     -6.25940819	      5.08092845	     52.12243867	      0.90970817	     12.01648111	    -19.14428861	     -7.49999987	    -15.04725041	      0.47072059	     -4.94739331	     12.80783429	    -40.46787376	    -47.73953042	     76.00020902	     53.44515430	    -12.56639499	    -18.00028379	    -81.40893565	     52.60982131	     84.38358662
      2.54166670	    -14.02923568	     -1.97448651	     -2.66994410	      0.28430370	      0.86781880	     -0.07517228	     40.88397794	     -0.89615689	      2.98573107	     48.49694237	      0.84643132	     14.48573399	     -1.63089804	     -7.49999987	     40.34548651	     -6.26485240	      4.78774857	     50.47768905	      0.88100187	     11.27305757	    -18.32889790	     -7.49999987	    -14.19340174	      0.29442542	     -6.87232593	     15.80307076	    -40.93449973	    -43.72305335	     73.40318957	     57.81432552	    -15.33290789	    -18.13462608	    -84.84298186	     54.74562473	     82.00434768
      2.54583330	    -13.79072550	     -1.89680122	     -2.58986171	      0.28701804	      0.87668654	     -0.07523835	     39.55901980	     -1.13476893	      2.72868391	     46.61130184	      0.81352069	     12.84182272	     -1.64739162	     -7.49999987	     38.99524902	     -6.18809295	      4.49065418	     48.57578375	      0.84780736	     10.10168818	    -17.83335725	     -7.49999987	    -13.46301901	      0.30444529	     -6.83135359	     14.57483674	    -42.26777325	    -42.74176059	     72.75897266	     58.61206971	    -16.99883256	    -18.03370639	    -85.87223978	     55.83973861	     81.40257512
      2.55000000	    -13.49597496	     -1.90627604	     -2.42283882	      0.29035805	      0.88654525	     -0.07675615	     37.94827567	     -1.41978239	      2.19087475	     44.44304759	      0.77567751	     11.36522867	     -0.69353973	     -7.49999987	     37.43711297	     -6.12145254	      4.32613498	     46.39246914	      0.80970133	      8.68397911	    -17.29778708	     -7.49999987	    -12.78309077	      0.24735733	     -6.93937781	     13.75085600	    -42.96608917	    -41.85829046	     72.69672841	     59.19337037	    -18.74685253	    -17.02030308	    -88.04287396	     54.75706686	     80.72992653
